<svg width="24" height="24" viewBox="0 0 24 24" fill="none" xmlns="http://www.w3.org/2000/svg">
<path fill-rule="evenodd" clip-rule="evenodd" d="M15.2194 6.969C15.289 6.89915 15.3718 6.84374 15.4629 6.80593C15.554 6.76812 15.6517 6.74866 15.7504 6.74866C15.849 6.74866 15.9467 6.76812 16.0378 6.80593C16.1289 6.84374 16.2117 6.89915 16.2814 6.969L20.7814 11.469C20.8512 11.5387 20.9066 11.6214 20.9444 11.7125C20.9822 11.8037 21.0017 11.9013 21.0017 12C21.0017 12.0986 20.9822 12.1963 20.9444 12.2874C20.9066 12.3786 20.8512 12.4613 20.7814 12.531L16.2814 17.031C16.1405 17.1718 15.9495 17.2509 15.7504 17.2509C15.5512 17.2509 15.3602 17.1718 15.2194 17.031C15.0785 16.8902 14.9994 16.6992 14.9994 16.5C14.9994 16.3008 15.0785 16.1098 15.2194 15.969L19.1899 12L15.2194 8.031C15.1495 7.96133 15.0941 7.87857 15.0563 7.78745C15.0185 7.69633 14.999 7.59865 14.999 7.5C14.999 7.40135 15.0185 7.30366 15.0563 7.21255C15.0941 7.12143 15.1495 7.03867 15.2194 6.969Z" fill="#222222"/>
<path fill-rule="evenodd" clip-rule="evenodd" d="M3 12C3 11.8011 3.07902 11.6103 3.21967 11.4697C3.36032 11.329 3.55109 11.25 3.75 11.25H19.5C19.6989 11.25 19.8897 11.329 20.0303 11.4697C20.171 11.6103 20.25 11.8011 20.25 12C20.25 12.1989 20.171 12.3897 20.0303 12.5303C19.8897 12.671 19.6989 12.75 19.5 12.75H3.75C3.55109 12.75 3.36032 12.671 3.21967 12.5303C3.07902 12.3897 3 12.1989 3 12Z" fill="#222222"/>
</svg>
