<svg width="25" height="24" viewBox="0 0 25 24" fill="none" xmlns="http://www.w3.org/2000/svg">
<path d="M19.741 2H9.76003C8.64903 2 7.75003 2.899 7.75003 4.01V9.647L3.04803 14.289C2.90715 14.4283 2.81083 14.6064 2.77131 14.8006C2.73179 14.9947 2.75085 15.1963 2.82606 15.3796C2.90128 15.5629 3.02926 15.7197 3.19376 15.8302C3.35827 15.9407 3.55188 15.9998 3.75003 16V21C3.75003 21.2652 3.85539 21.5196 4.04292 21.7071C4.23046 21.8946 4.48481 22 4.75003 22H20.75C21.0152 22 21.2696 21.8946 21.4571 21.7071C21.6447 21.5196 21.75 21.2652 21.75 21V4.009C21.75 2.899 20.852 2 19.741 2ZM11.672 15.111V20H5.75003V14.432L8.73703 11.483L11.672 14.486V15.111ZM13.75 9H11.75V7H13.75V9ZM17.75 17H15.75V15H17.75V17ZM17.75 13H15.75V11H17.75V13ZM17.75 9H15.75V7H17.75V9Z" fill="#1890FF"/>
<path d="M7.75 15H9.75V17H7.75V15Z" fill="#1890FF"/>
</svg>
