<svg width="25" height="24" viewBox="0 0 25 24" fill="none" xmlns="http://www.w3.org/2000/svg">
<path d="M14.5302 10.08C16.0902 10.08 17.0502 7.79998 17.0502 6.35998C17.0502 5.15998 16.4502 3.71998 15.2502 3.71998C13.6902 3.71998 12.7302 5.99998 12.7302 7.43998C12.7302 8.63998 13.3302 10.08 14.5302 10.08ZM9.97021 10.08C11.1702 10.08 11.7702 8.63998 11.7702 7.43998C11.7702 5.87998 10.8102 3.59998 9.25021 3.59998C8.0502 3.59998 7.45021 5.03998 7.45021 6.23998C7.33021 7.79998 8.29021 10.08 9.97021 10.08ZM18.8502 8.87998C17.2902 8.87998 16.2102 11.04 16.2102 12.6C16.2102 13.68 16.6902 14.76 17.7702 14.76C19.3302 14.76 20.4102 12.6 20.4102 11.04C20.4102 9.95998 19.8102 8.87998 18.8502 8.87998ZM8.41021 12.6C8.41021 11.04 7.21021 8.87998 5.77021 8.87998C4.69021 8.87998 4.21021 9.95998 4.21021 11.04C4.21021 12.6 5.41021 14.76 6.85021 14.76C7.93021 14.76 8.41021 13.68 8.41021 12.6ZM12.2502 12.36C9.8502 12.36 6.61021 16.2 6.61021 18.84C6.61021 20.04 7.45021 20.4 8.41021 20.4C9.85021 20.4 10.9302 19.44 12.2502 19.44C13.4502 19.44 14.5302 20.4 15.8502 20.4C16.8102 20.4 17.8902 20.16 17.8902 18.84C17.8902 16.2 14.6502 12.36 12.2502 12.36Z" fill="#1890FF"/>
</svg>
