<svg width="42" height="45" viewBox="0 0 42 45" fill="none" xmlns="http://www.w3.org/2000/svg">
<path d="M27.8569 6.02654C16.0498 7.91145 4.1186 15.4516 1.52545 27.3946C0.354403 32.7843 0.769465 36.6406 0 41.5264C1.94332 38.12 3.95123 35.1561 5.95802 32.5534C5.47107 30.7971 4.7909 27.3593 5.70303 23.854C5.70303 23.854 6.21919 28.2467 7.56379 30.5624C8.60021 29.3122 9.68522 28.1032 10.8163 26.938C10.6006 24.378 10.3603 17.6915 13.3207 14.603C13.3207 14.603 11.5352 21.2176 12.5867 25.1958C21.3586 16.9187 28.7005 15.2298 28.7005 15.2298C24.3544 17.7033 20.643 20.3987 17.4377 23.2053C20.8935 22.9525 28.0158 20.5621 28.0158 20.5621C22.6167 23.8119 17.3293 25.0632 14.9619 25.4957C12.8978 27.5084 10.9852 29.6709 9.23976 31.9654C15.2584 32.3428 27.3014 27.7418 27.3014 27.7418C21.5827 31.8194 11.255 33.8576 7.40709 34.5035C6.97911 35.1382 3.96696 40.4306 2.14776 44.7217C4.93019 43.6961 9.24594 42.188 13.7482 40.9327C21.3777 38.8013 31.4857 35.8582 36.4704 24.3994C41.4203 13.0253 39.0978 4.29216 41.7971 0.0960428C41.3877 0.723971 38.6086 4.31069 27.8569 6.02654ZM41.7983 0.0960428C41.8381 0.0342609 41.8572 0 41.8572 0C41.8359 0.0308909 41.8185 0.0645902 41.7983 0.0960428Z" fill="#1890FF"/>
</svg>
