<svg width="220" height="45" viewBox="0 0 220 45" fill="none" xmlns="http://www.w3.org/2000/svg">
<path d="M62.8115 7.45361C65.6613 7.45361 68.2135 8.08489 70.4681 9.34745C72.7046 10.61 74.4541 12.3596 75.7167 14.5961C76.9793 16.8326 77.6105 19.3758 77.6105 22.2256C77.6105 25.0753 76.9793 27.6275 75.7167 29.8821C74.4541 32.1186 72.7046 33.8682 70.4681 35.1307C68.2135 36.3933 65.6613 37.0246 62.8115 37.0246H55.9937C55.6691 37.0246 55.3985 36.9163 55.1821 36.6999C54.9656 36.5015 54.8574 36.231 54.8574 35.8883V8.58992C54.8574 8.22919 54.9656 7.94962 55.1821 7.75122C55.3985 7.55281 55.6691 7.45361 55.9937 7.45361H62.8115ZM62.8115 34.9954C65.2284 34.9954 67.3838 34.4453 69.2777 33.3451C71.1715 32.2449 72.6595 30.7208 73.7417 28.7728C74.8059 26.8249 75.3379 24.6425 75.3379 22.2256C75.3379 19.8087 74.8059 17.6262 73.7417 15.6783C72.6595 13.7484 71.1715 12.2333 69.2777 11.1331C67.3838 10.0509 65.2284 9.50978 62.8115 9.50978H57.13V34.9954H62.8115ZM92.7613 16.0841C94.7453 16.0841 96.5399 16.544 98.1452 17.4639C99.7685 18.3838 101.04 19.6553 101.96 21.2786C102.88 22.9019 103.34 24.7056 103.34 26.6896V35.8883C103.34 36.231 103.241 36.5015 103.042 36.6999C102.844 36.9163 102.564 37.0246 102.203 37.0246C101.879 37.0246 101.608 36.9163 101.392 36.6999C101.175 36.5015 101.067 36.231 101.067 35.8883V32.9393C100.237 34.274 99.0921 35.3291 97.6311 36.1047C96.1882 36.8803 94.5649 37.2681 92.7613 37.2681C90.7772 37.2681 88.9736 36.8081 87.3503 35.8883C85.745 34.9684 84.4735 33.6968 83.5356 32.0735C82.6157 30.4502 82.1558 28.6556 82.1558 26.6896C82.1558 24.7056 82.6157 22.9019 83.5356 21.2786C84.4735 19.6553 85.745 18.3838 87.3503 17.4639C88.9736 16.544 90.7772 16.0841 92.7613 16.0841ZM92.7613 35.1307C94.3304 35.1307 95.7463 34.77 97.0089 34.0485C98.2714 33.309 99.2634 32.299 99.9849 31.0184C100.706 29.7198 101.067 28.2768 101.067 26.6896C101.067 25.1024 100.706 23.6685 99.9849 22.3879C99.2634 21.0893 98.2714 20.0702 97.0089 19.3307C95.7463 18.5912 94.3304 18.2214 92.7613 18.2214C91.2101 18.2214 89.8033 18.5912 88.5407 19.3307C87.2781 20.0702 86.2771 21.0893 85.5376 22.3879C84.7981 23.6685 84.4284 25.1024 84.4284 26.6896C84.4284 28.2768 84.7981 29.7198 85.5376 31.0184C86.2771 32.299 87.2781 33.309 88.5407 34.0485C89.8033 34.77 91.2101 35.1307 92.7613 35.1307ZM117.814 16.0841C119.726 16.0841 120.682 16.499 120.682 17.3286C120.682 17.4549 120.673 17.5631 120.655 17.6533C120.583 17.9238 120.465 18.1132 120.303 18.2214C120.123 18.3477 119.897 18.4108 119.627 18.4108C119.392 18.4108 119.095 18.3838 118.734 18.3297C118.373 18.2756 118.067 18.2485 117.814 18.2485C116.551 18.2485 115.424 18.51 114.432 19.0331C113.458 19.5742 112.692 20.3137 112.133 21.2516C111.573 22.1714 111.294 23.2176 111.294 24.3899V35.8883C111.294 36.231 111.195 36.5015 110.996 36.6999C110.798 36.9163 110.518 37.0246 110.158 37.0246C109.833 37.0246 109.562 36.9163 109.346 36.6999C109.129 36.5015 109.021 36.231 109.021 35.8883V17.4639C109.021 17.1032 109.129 16.8236 109.346 16.6252C109.562 16.4268 109.833 16.3276 110.158 16.3276C110.518 16.3276 110.798 16.4268 110.996 16.6252C111.195 16.8236 111.294 17.1032 111.294 17.4639V19.7906C112.033 18.6363 112.971 17.7345 114.108 17.0851C115.244 16.4178 116.479 16.0841 117.814 16.0841ZM135.075 16.0841C137.041 16.0841 138.836 16.544 140.459 17.4639C142.082 18.3838 143.354 19.6553 144.274 21.2786C145.194 22.9019 145.653 24.7056 145.653 26.6896V35.8883C145.653 36.231 145.554 36.5015 145.356 36.6999C145.139 36.9163 144.86 37.0246 144.517 37.0246C144.193 37.0246 143.922 36.9163 143.706 36.6999C143.489 36.5015 143.381 36.231 143.381 35.8883V32.9393C142.551 34.274 141.406 35.3291 139.945 36.1047C138.502 36.8803 136.879 37.2681 135.075 37.2681C133.091 37.2681 131.287 36.8081 129.664 35.8883C128.041 34.9684 126.769 33.6968 125.849 32.0735C124.929 30.4502 124.47 28.6556 124.47 26.6896C124.47 24.7056 124.929 22.9019 125.849 21.2786C126.769 19.6553 128.041 18.3838 129.664 17.4639C131.287 16.544 133.091 16.0841 135.075 16.0841ZM135.075 35.1307C136.644 35.1307 138.06 34.77 139.323 34.0485C140.585 33.309 141.577 32.299 142.299 31.0184C143.02 29.7198 143.381 28.2768 143.381 26.6896C143.381 25.1024 143.02 23.6685 142.299 22.3879C141.577 21.0893 140.585 20.0702 139.323 19.3307C138.06 18.5912 136.644 18.2214 135.075 18.2214C133.506 18.2214 132.09 18.5912 130.827 19.3307C129.565 20.0702 128.573 21.0893 127.851 22.3879C127.112 23.6685 126.742 25.1024 126.742 26.6896C126.742 28.2768 127.112 29.7198 127.851 31.0184C128.573 32.299 129.565 33.309 130.827 34.0485C132.09 34.77 133.506 35.1307 135.075 35.1307ZM173.953 35.4013C174.025 35.5636 174.061 35.7259 174.061 35.8883C174.061 36.1949 173.944 36.4654 173.709 36.6999C173.493 36.9163 173.231 37.0246 172.925 37.0246C172.42 37.0246 172.068 36.7901 171.87 36.3211L169.056 29.6115H153.635L150.848 36.3211C150.668 36.7901 150.307 37.0246 149.766 37.0246C149.423 37.0246 149.153 36.9163 148.954 36.6999C148.738 36.4654 148.63 36.1949 148.63 35.8883C148.63 35.7259 148.675 35.5636 148.765 35.4013L160.236 8.2382C160.434 7.71514 160.795 7.45361 161.318 7.45361C161.823 7.45361 162.193 7.71514 162.427 8.2382L173.953 35.4013ZM154.5 27.5554H168.19L161.318 11.2142L154.5 27.5554ZM196.868 7.45361C197.211 7.45361 197.482 7.55281 197.68 7.75122C197.896 7.94962 198.005 8.22919 198.005 8.58992V26.7978V26.879C197.969 28.8269 197.482 30.5945 196.544 32.1817C195.624 33.769 194.361 35.0135 192.756 35.9153C191.151 36.8171 189.374 37.2681 187.426 37.2681C185.424 37.2681 183.62 36.8081 182.015 35.8883C180.392 34.9684 179.12 33.6968 178.2 32.0735C177.281 30.4502 176.821 28.6466 176.821 26.6626C176.821 24.6966 177.281 22.9019 178.2 21.2786C179.12 19.6553 180.392 18.3838 182.015 17.4639C183.62 16.544 185.424 16.0841 187.426 16.0841C189.212 16.0841 190.835 16.4719 192.296 17.2475C193.739 18.023 194.884 19.0782 195.732 20.4129V8.58992C195.732 8.22919 195.84 7.94962 196.057 7.75122C196.255 7.55281 196.526 7.45361 196.868 7.45361ZM187.426 35.1307C188.995 35.1307 190.411 34.761 191.674 34.0215C192.936 33.282 193.928 32.2629 194.65 30.9643C195.371 29.6837 195.732 28.2498 195.732 26.6626C195.732 25.0753 195.371 23.6324 194.65 22.3338C193.928 21.0532 192.936 20.0431 191.674 19.3036C190.411 18.5822 188.995 18.2214 187.426 18.2214C185.857 18.2214 184.441 18.5822 183.179 19.3036C181.916 20.0431 180.924 21.0532 180.203 22.3338C179.463 23.6324 179.093 25.0753 179.093 26.6626C179.093 28.2498 179.463 29.6837 180.203 30.9643C180.924 32.2629 181.916 33.282 183.179 34.0215C184.441 34.761 185.857 35.1307 187.426 35.1307ZM211.884 16.0841C215.076 16.0841 217.493 17.2204 219.134 19.493C219.279 19.6734 219.351 19.8898 219.351 20.1423C219.351 20.5031 219.152 20.7917 218.756 21.0081C218.503 21.1163 218.314 21.1704 218.188 21.1704C217.809 21.1704 217.493 21.0081 217.241 20.6834C215.942 19.0421 214.138 18.2214 211.83 18.2214C210.278 18.2214 209.052 18.5551 208.15 19.2225C207.23 19.8898 206.77 20.7105 206.77 21.6845C206.77 22.6945 207.212 23.5062 208.096 24.1194C208.962 24.7326 210.414 25.1836 212.452 25.4721C215.139 25.8509 217.069 26.5724 218.242 27.6365C219.414 28.6826 220 29.9452 220 31.4242C220 32.5966 219.63 33.6247 218.891 34.5085C218.133 35.3923 217.141 36.0686 215.915 36.5376C214.67 37.0246 213.318 37.2681 211.857 37.2681C210.396 37.2681 208.971 37.0065 207.582 36.4835C206.193 35.9604 205.039 35.1758 204.119 34.1297C203.957 33.9133 203.876 33.6788 203.876 33.4263C203.876 33.0836 204.038 32.795 204.363 32.5605C204.507 32.4343 204.723 32.3711 205.012 32.3711C205.355 32.3711 205.643 32.5154 205.878 32.804C207.14 34.3371 209.169 35.1037 211.965 35.1037C213.967 35.1037 215.437 34.752 216.375 34.0485C217.331 33.3451 217.809 32.4343 217.809 31.316C217.809 29.3139 215.879 28.0424 212.019 27.5013C209.566 27.1405 207.717 26.4642 206.473 25.4721C205.21 24.4982 204.579 23.3168 204.579 21.928C204.579 20.0882 205.255 18.6543 206.608 17.6262C207.961 16.5982 209.719 16.0841 211.884 16.0841Z" fill="#1890FF"/>
<path d="M27.8569 6.02654C16.0498 7.91145 4.11861 15.4517 1.52545 27.3946C0.354403 32.7843 0.769465 36.6406 0 41.5264C1.94332 38.12 3.95123 35.1561 5.95802 32.5534C5.47107 30.7971 4.7909 27.3593 5.70303 23.854C5.70303 23.854 6.21919 28.2467 7.56379 30.5624C8.60021 29.3122 9.68522 28.1032 10.8163 26.938C10.6006 24.378 10.3603 17.6915 13.3207 14.603C13.3207 14.603 11.5352 21.2176 12.5867 25.1958C21.3586 16.9187 28.7005 15.2298 28.7005 15.2298C24.3544 17.7033 20.643 20.3987 17.4377 23.2053C20.8935 22.9525 28.0158 20.5621 28.0158 20.5621C22.6167 23.8119 17.3293 25.0632 14.9619 25.4957C12.8978 27.5084 10.9852 29.6709 9.23976 31.9654C15.2584 32.3428 27.3014 27.7418 27.3014 27.7418C21.5827 31.8194 11.255 33.8576 7.40709 34.5035C6.97911 35.1382 3.96696 40.4306 2.14776 44.7217C4.93019 43.6961 9.24594 42.188 13.7482 40.9327C21.3777 38.8013 31.4857 35.8582 36.4704 24.3994C41.4203 13.0253 39.0978 4.29216 41.7971 0.0960428C41.3877 0.723971 38.6086 4.31069 27.8569 6.02654ZM41.7983 0.0960428C41.8381 0.0342609 41.8572 0 41.8572 0C41.8359 0.0308909 41.8185 0.0645902 41.7983 0.0960428Z" fill="#1890FF"/>
</svg>
